<?xml version="1.0" encoding="UTF-8"?>
<svg id="Layer_1" xmlns="http://www.w3.org/2000/svg" version="1.1" viewBox="0 0 140 60">
  <!-- Generator: Adobe Illustrator 29.5.1, SVG Export Plug-In . SVG Version: 2.1.0 Build 141)  -->
  <defs>
    <style>
      .st0 {
        stroke: #3d3d3d;
      }

      .st0, .st1 {
        fill: #fff;
        stroke-miterlimit: 10;
        stroke-width: 4px;
      }

      .st2 {
        fill: #0355a0;
      }

      .st1 {
        stroke: #0054a0;
      }
    </style>
  </defs>
  <g>
    <g>
      <rect class="st1" x="19.8" y="52.2" width="14.5" height="3.9" rx=".5" ry=".5"/>
      <rect class="st1" x="21.6" y="55.1" width="10.9" height="2.9" rx=".5" ry=".5"/>
    </g>
    <g>
      <rect class="st1" x="47.8" y="52.2" width="14.5" height="3.9" rx=".5" ry=".5"/>
      <rect class="st1" x="49.6" y="55.1" width="10.9" height="2.9" rx=".5" ry=".5"/>
    </g>
    <g>
      <rect class="st1" x="75.8" y="52.2" width="14.5" height="3.9" rx=".5" ry=".5"/>
      <rect class="st1" x="77.6" y="55.1" width="10.9" height="2.9" rx=".5" ry=".5"/>
    </g>
    <g>
      <rect class="st1" x="103.8" y="52.2" width="14.5" height="3.9" rx=".5" ry=".5"/>
      <rect class="st1" x="105.6" y="55.1" width="10.9" height="2.9" rx=".5" ry=".5"/>
    </g>
    <rect class="st0" x="7.3" y="2.5" width="125.4" height="49.7" rx="5" ry="5"/>
  </g>
  <g>
    <polygon class="st2" points="105.2 21.2 105.2 23.8 111.4 23.8 104.9 30.7 104.9 33.1 116 33.1 116 30.5 109.4 30.5 115.7 23.8 115.7 21.2 105.2 21.2"/>
    <path class="st2" d="M115.5,16.7c-9.6-5.3-30.2-8.9-45.5-8.9h-.1c-15.2,0-35.9,3.6-45.5,8.9-.8.4-.5,1.1.1,1.1h90.8c.6,0,.9-.6.1-1.1"/>
    <path class="st2" d="M31.8,29.6c0,.8-1,1.3-2.6,1.3-1.3,0-2.7-.3-3.9-.8l-1.3,2.1c1.6.8,3.5,1.3,5.3,1.2,4.1,0,5.9-1.7,5.9-3.8s-2.3-3.3-4.8-3.6c-1.5-.2-2.5-.3-2.5-1.3s.6-1.2,1.9-1.2,2.3.3,3.5.8l1.3-2.1c-1.5-.8-3.2-1.2-4.9-1.2-3.4,0-5.3,1.5-5.3,3.7s2,3.5,4.7,3.8c1.9.2,2.6.4,2.6,1.2"/>
    <path class="st2" d="M40.4,28.9v-3.5c0-1.1.8-1.8,2.1-1.8s2.1.2,3.3.7l1.3-2.2c-1.4-.8-3-1.2-4.6-1.1-3.2,0-5.6,1.5-5.6,4v4.5c0,2.4,2.4,4,5.6,4,1.6,0,3.2-.4,4.6-1.1l-1.3-2.2c-1.2.5-1.9.7-3.3.7s-2.1-.6-2.1-1.8"/>
    <polygon class="st2" points="56.9 21.2 56.9 25.7 52.7 25.7 52.7 21.2 49.2 21.2 49.2 33.1 52.7 33.1 52.7 28.6 56.9 28.6 56.9 33.1 60.4 33.1 60.4 21.2 56.9 21.2"/>
    <polygon class="st2" points="73.8 33.1 77.2 33.1 77.2 21.2 74.4 21.2 70.1 27.2 65.9 21.2 63.1 21.2 63.1 33.1 66.5 33.1 66.5 27.3 69.2 30.9 71.1 30.9 73.8 27.3 73.8 33.1"/>
    <path class="st2" d="M87.3,28.5h-3.3l1.7-3.8,1.7,3.8ZM92.9,33.1l-5.4-12h-3.4l-5.7,12h3.6l.9-2h5.7l.9,2h3.6Z"/>
    <polygon class="st2" points="94.2 21.2 94.2 33.1 103.6 33.1 103.6 30.5 97.7 30.5 97.7 21.2 94.2 21.2"/>
    <path class="st2" d="M24.5,37.6c9.6,5.3,30.2,8.9,45.5,8.9h.1c15.2,0,35.9-3.6,45.5-8.9.8-.4.5-1.1-.1-1.1H24.6c-.6,0-.9.6-.1,1.1"/>
  </g>
</svg>