<?xml version="1.0" encoding="UTF-8"?>
<svg id="Layer_1" xmlns="http://www.w3.org/2000/svg" version="1.1" viewBox="0 0 300 600">
  <!-- Generator: Adobe Illustrator 29.5.1, SVG Export Plug-In . SVG Version: 2.1.0 Build 141)  -->
  <defs>
    <style>
      .st0 {
        fill: #0355a0;
      }
    </style>
  </defs>
  <path class="st0" d="M245.6,495.2H53.6V104.2h192v391ZM234.6,132.2h-17l-2-18-19.4,7-15.3-6.7-16.6,6.6-15.2-6.8-15.1,6.9-16.1-6.7-16.7,6.7-17.1-7c-2.1.1-1.8,13.6-2.7,16.3l-1.3,1.7h-16.5l7,21.4-6.8,14.3,6.8,16.8-6.8,16,6.9,15.1-6.9,15.9,6.9,16-6.8,16.8,6.8,15.2-6.8,14.3,6.8,16.8c-.8,4.3-6.8,12.1-6.9,16s7.2,11.7,6.9,15.9-6.9,11.6-6.9,15.1,6,11.7,6.9,16l-6.9,16,6.7,16.8-6.7,14.2,6.9,16.1-7,20.4,18,1,1,17c1.2,1.2,16.4-6.8,19.3-6.7,4.4.1,12,7,16.1,6.7l15.9-6.8,15.2,6.8,15.1-6.7,16.8,6.7,15.9-6.7,18.1,6.8,2.7-16.9,16.9-1.1-6.8-20.3c3-7.7,8.3-12.2,5.3-20.6s-5-8.5-5.1-10.5c-.2-4.5,7.1-11.6,6.6-16.9s-6.6-12.3-6.6-15.1,6.3-11.7,6.6-15.1c.5-5.4-6.3-11.1-6.1-16.9s6.1-10.5,6.1-15-6-11.4-6.7-16l6.7-16-6.6-16,6.6-15-6.7-16,6.7-16-6.7-16,6.6-15.9-6.6-15.1c.7-4.5,6.2-11.2,6.6-15.1s-6.4-12.3-6.6-16.9c-.1-3.2,8-19.2,6.6-20.5Z"/>
  <path class="st0" d="M299.7-1c2.4,2.4-11.7,31.9-11.5,37.9.3,8.5,12.4,22,11.5,31.2s-10.5,19.6-11.6,27.9l11.6,27.9-11.6,29.4,11.7,29.6-11.7,29.6,11.7,29.6-11.7,27.7,11.7,29.6-11.7,29.6c1.3,8.6,11.7,21.9,11.7,29.6,0,8.4-10.4,18.9-10.7,27.8-.4,10.6,11.6,21.3,10.6,31.2-.6,6.3-11.6,22.8-11.6,27.9,0,5.1,11,21.6,11.6,27.9.9,9.7-11.9,23-11.5,31.3s7.2,14.4,8.9,19.4c5.3,15.6-4,23.9-9.2,38.2l11.9,37.6H0s12.2-37.8,12.2-37.8L.1,532.5l11.8-26.3L.1,475.2l12-29.6c-1.5-7.9-12-22.4-12-29.6s11.7-20.8,12.1-27.9c.5-7.8-12.1-22.6-12.1-29.4s10.6-21.7,12-29.6L.3,298.1l12-26.5L.3,243.6l11.9-31L.1,183l12.1-29.4L.2,125.7l12-29.6L.3,65.1l11.9-26.4L0-1h299.7Z"/>
</svg>